<svg width="138" height="29" viewBox="0 0 138 29" fill="none" xmlns="http://www.w3.org/2000/svg">
<path fill-rule="evenodd" clip-rule="evenodd" d="M46.9331 2.33643V19.1287C46.9331 22.8309 43.7164 25.6424 39.4667 25.6424C35.2184 25.6424 32 22.8312 32 19.1287V6.28306C32 4.11205 33.7294 2.33643 35.8862 2.33643H36.1583V19.0981C36.1583 21.0883 37.919 22.3103 39.6179 22.3103C41.257 22.3103 43.0197 21.1783 43.0197 19.0981V6.0692C43.0197 4.02024 44.6877 2.33643 46.7201 2.33643H46.9331V2.33643ZM55.1254 8.26962C60.8008 8.26962 61.7123 11.4829 61.7123 13.4094V25.3988H61.5309C59.4359 25.3988 57.6446 23.6246 57.6446 21.5134V13.4716C57.6446 12.3394 57.1888 10.9911 54.9742 10.9911C53.9436 10.9911 53.3352 11.1146 52.668 11.3601V25.3992H48.5997V9.52536C50.3336 8.75926 53.1232 8.26962 55.1254 8.26962V8.26962ZM65.5214 2.33643C66.7351 2.33643 67.7053 3.25414 67.7053 4.38503C67.7053 5.48706 66.7351 6.37383 65.5214 6.37383C64.3073 6.37383 63.3062 5.48776 63.3062 4.38503C63.3055 3.25414 64.3073 2.33643 65.5214 2.33643V2.33643ZM67.5236 8.26953V8.26953V21.5446C67.5236 23.6527 65.8244 25.3991 63.7009 25.3991H63.5161V8.26953H67.5236ZM79.0798 2C80.993 2 82.7822 2.42843 84.2691 3.34545V7.38355C83.3604 6.19041 82.0549 5.36589 79.9613 5.36589C75.8312 5.36589 73.2834 9.46206 73.2834 13.7151C73.2834 17.7247 75.9545 22.0966 79.9613 22.0966C81.721 22.0966 83.3298 21.5771 84.2691 20.2907V24.2662C83.0876 25.1547 81.2356 25.6437 79.0502 25.6437C72.4932 25.6437 69.0347 19.5869 69.0347 13.746C69.0354 7.99664 72.4939 2 79.0798 2V2ZM91.4562 8.26962C92.1254 8.26962 92.9757 8.33152 93.7342 8.45498V11.7256C92.3384 10.7178 90.4856 11.0551 89.6676 11.4825V21.5444C89.6676 23.6528 87.9392 25.3988 85.8439 25.3988H85.6309V9.58726C87.2102 8.8222 88.8184 8.26962 91.4562 8.26962V8.26962ZM107.816 17.0179L97.7087 18.4256C98.0416 21.2086 99.4406 22.6779 101.989 22.6779C104.81 22.6779 106.238 21.7602 107.272 21.0264V24.4191C106.238 24.9734 104.327 25.6428 101.595 25.6428C96.6478 25.6428 93.7036 22.2814 93.7036 16.8958C93.7036 11.6674 96.4355 8.27051 100.925 8.27051C105.358 8.27051 107.815 11.2379 107.815 16.377V17.0179H107.816ZM104.295 14.6927V14.6927C104.174 11.2975 102.08 10.9331 100.956 10.9331H100.806C98.5297 10.9915 97.4678 12.6155 97.4678 15.642L104.295 14.6927ZM122.391 2.33643V25.1837C121.419 25.3993 118.234 25.6424 116.898 25.6424H116.622C111.677 25.5833 108.976 22.7077 108.976 17.5377C108.976 12.3093 111.797 8.94337 116.17 8.94337C117.019 8.94337 117.746 9.03691 118.385 9.18714V6.22151C118.385 4.0811 120.085 2.33677 122.21 2.33677H122.391V2.33643ZM118.414 11.5737V11.5737C117.991 11.4513 117.535 11.3901 117.019 11.3901C113.68 11.3901 112.98 14.6326 112.98 17.3231C112.98 21.0882 114.228 22.9522 116.745 22.9522C117.17 22.9522 118.109 22.8597 118.414 22.8013V11.5737V11.5737ZM126.289 2.33643C127.503 2.33643 128.476 3.25414 128.476 4.38503C128.476 5.48706 127.504 6.37383 126.289 6.37383C125.075 6.37383 124.073 5.48776 124.073 4.38503C124.073 3.25414 125.075 2.33643 126.289 2.33643V2.33643ZM128.293 8.26953V8.26953V21.5446C128.293 23.6527 126.592 25.3991 124.468 25.3991H124.288V8.26953H128.293ZM135.389 2.33662V8.26997H138V11.5434H135.389V20.6291C135.389 21.729 135.754 22.0653 136.938 22.0653C137.241 22.0653 137.697 21.9735 138 21.8511V25.2465C137.818 25.3063 137.029 25.6433 135.969 25.6433C132.993 25.6433 131.354 24.1751 131.354 21.5141V11.5427H129.591V8.26962H131.354V6.19041C131.354 4.08095 133.052 2.33593 135.149 2.33593H135.389V2.33662H135.389Z" fill="white"/>
<path fill-rule="evenodd" clip-rule="evenodd" d="M27.3458 14.7079C27.3458 22.1015 21.5747 28.0937 14.4561 28.0937C11.5133 28.0937 8.80074 27.0692 6.63105 25.3448C6.20473 25.6723 5.84085 25.9514 5.59132 26.1428C5.40963 26.2822 5.28856 26.3751 5.24817 26.4062C5.23586 26.4158 5.22263 26.4261 5.20856 26.4371C4.88939 26.6861 4.1345 27.2751 3.69674 26.8368C3.64418 26.7844 3.59205 26.7333 3.54117 26.6834C3.33965 26.4858 3.15758 26.3073 3.04539 26.1431C3.48067 26.1536 4.4714 26.0086 4.69343 25.8351C4.73676 25.8016 4.87245 25.6975 5.07593 25.5414C6.24513 24.6444 9.65279 22.0301 10.6406 21.2351C11.8003 20.2995 17.7668 15.1294 19.6323 13.4521C21.4985 11.7748 24.0516 9.33685 24.0516 9.33685C25.5984 7.90244 26.5761 6.91195 26.7409 6.25945C26.7862 6.07943 26.6822 5.53249 26.566 5.24438C27.3389 5.79457 27.2359 6.73951 27.1614 7.03883C27.0529 7.46775 26.6509 7.95243 25.9491 8.64197C26.8422 10.4628 27.3458 12.5242 27.3458 14.7079ZM14.4567 1.32446C17.9343 1.32446 21.0902 2.75433 23.4087 5.07883C20.4667 4.8956 14.356 5.42782 13.6141 5.58133C12.8239 5.7455 12.7771 6.53175 13.0441 6.74494C13.23 6.89207 13.9319 7.33027 14.481 7.67307C14.7262 7.82616 14.941 7.96022 15.0657 8.04085C15.4693 8.30305 15.4132 8.49978 15.27 8.74553C15.1304 8.99093 13.6398 10.9915 13.6398 10.9915C13.1207 11.6394 7.2689 20.1997 5.09125 23.3853L4.89059 23.6788C2.82557 21.3052 1.56799 18.1591 1.56799 14.7079C1.56799 7.31629 7.33904 1.32446 14.4567 1.32446Z" fill="white"/>
</svg>
