<svg width="140" height="27" viewBox="0 0 140 27" fill="none" xmlns="http://www.w3.org/2000/svg">
<path fill-rule="evenodd" clip-rule="evenodd" d="M14.0279 6.91944L14.0587 6.88883C14.2745 6.58266 14.182 6.36834 14.0279 6.24587C13.9354 6.15402 11.8389 4.89872 11.8389 4.89872C11.6848 4.80687 11.5923 4.62317 11.5923 4.43947C11.5923 4.1333 11.7772 3.88836 12.2089 3.79651C13.5654 3.4291 18.2825 3.2454 19.8857 3.2454C20.4406 3.2454 21.3964 3.2454 22.2596 3.27602L22.2288 3.2454C19.8857 1.19406 16.8026 0 13.4729 0C6.04277 0 0 6.00093 0 13.3796C0 16.625 1.17156 19.6255 3.11388 21.9218C4.80956 19.503 9.0025 13.5327 9.89658 12.308C10.9448 10.8997 13.3496 7.77672 13.7812 7.25623L13.8121 7.22561L14.0279 6.91944Z" fill="#E2001A"/>
<path fill-rule="evenodd" clip-rule="evenodd" d="M5.24136 24.0037C7.52282 25.7489 10.3592 26.7899 13.4731 26.7899C20.9341 26.7899 26.946 20.789 26.946 13.3796C26.946 11.1446 26.3911 9.03202 25.4045 7.16438C25.867 6.73575 26.3911 6.03156 26.0519 5.14366C25.9286 4.86811 25.4045 4.28639 25.2812 4.1333L25.312 4.19453C25.6511 5.17428 25.0037 5.78662 24.5104 6.21526C24.2638 6.46019 20.8416 9.64436 16.8028 13.1347C13.3189 16.227 9.34182 19.35 7.06036 21.0645C3.82316 23.4526 3.20655 23.82 3.20655 23.82C3.11406 23.8813 2.99074 23.9119 2.86742 23.9119C2.68243 23.9119 2.49745 23.82 2.40496 23.6976C2.37413 23.7282 2.37413 23.7894 2.40496 23.7894C2.74409 24.3405 3.32987 24.9835 3.66901 24.9835C3.7615 24.9835 3.91565 24.9529 4.00814 24.8916C3.97731 24.861 4.22396 24.7385 5.24136 24.0037Z" fill="#E2001A"/>
<path fill-rule="evenodd" clip-rule="evenodd" d="M14.0585 6.88903C14.2743 6.58286 14.1818 6.36854 14.0277 6.24607C13.9352 6.15422 11.8387 4.89892 11.8387 4.89892C11.6845 4.80707 11.5921 4.62337 11.5921 4.43967C11.5921 4.1335 11.777 3.88856 12.2087 3.79671C13.5652 3.42931 18.2823 3.24561 19.8855 3.24561C20.6562 3.24561 22.1361 3.24561 23.1227 3.30684C24.2326 3.36807 25.065 3.61301 25.2808 4.1335C25.6816 5.17448 25.0033 5.81743 24.5409 6.24607C24.2942 6.49101 20.872 9.67518 16.8332 13.1655C13.3186 16.2272 9.34143 19.3502 7.05997 21.0647C3.82277 23.4528 3.20616 23.8202 3.20616 23.8202C3.11367 23.8815 2.99035 23.9121 2.86703 23.9121C2.52789 23.9121 2.28125 23.6671 2.28125 23.3304C2.28125 23.2079 2.31208 23.0854 2.37374 22.9936C2.37374 22.9936 8.72482 13.9003 9.89638 12.3695C11.0371 10.8386 13.8427 7.22582 13.8427 7.22582C13.8427 7.22582 13.8427 7.16458 14.0585 6.88903Z" fill="white"/>
<path d="M47.0163 2.32666V19.1354C47.0163 22.8401 43.7482 25.6568 39.432 25.6568C35.1157 25.6568 31.8477 22.8401 31.8477 19.1354V6.27625C31.8477 4.10245 33.605 2.32666 35.794 2.32666H36.0714V19.1048C36.0714 21.0949 37.8596 22.3196 39.5861 22.3196C41.251 22.3196 43.0391 21.1867 43.0391 19.1048V6.06193C43.0391 4.0106 44.7348 2.32666 46.8004 2.32666L47.0163 2.32666Z" fill="#262626"/>
<path d="M55.3405 8.2666C61.1058 8.2666 62.0307 11.4814 62.0307 13.4103V25.4121H61.8457C59.7184 25.4121 57.8994 23.6363 57.8994 21.5238V13.4715C57.8994 12.3387 57.4369 10.9915 55.1863 10.9915C54.1381 10.9915 53.5215 11.114 52.8432 11.3589C52.8432 11.6345 52.8432 25.4121 52.8432 25.4121H48.7119V9.5219C50.4693 8.75647 53.3057 8.2666 55.3405 8.2666Z" fill="#262626"/>
<path d="M67.9194 21.5542C67.9194 23.6668 66.1928 25.4126 64.0347 25.4126H63.8501V8.26709H67.9194V21.5542ZM65.8853 2.32666C67.1183 2.32683 68.105 3.2457 68.105 4.37842C68.1047 5.48033 67.1182 6.36751 65.8853 6.36768C64.6522 6.36768 63.6345 5.48044 63.6343 4.37842C63.6343 3.24559 64.652 2.32666 65.8853 2.32666Z" fill="#262626"/>
<path d="M79.6658 1.99023C81.6081 1.99023 83.4271 2.41887 84.9378 3.33738V7.37883C84.0129 6.18476 82.6872 5.3581 80.5599 5.3581C76.367 5.3581 73.7772 9.46078 73.7772 13.7165C73.7772 17.7274 76.4903 22.1056 80.5599 22.1056C82.3481 22.1056 83.9821 21.5851 84.9378 20.2992V24.2794C83.7354 25.1673 81.8548 25.6572 79.635 25.6572C72.9756 25.6572 69.4609 19.595 69.4609 13.7472C69.4609 7.99117 72.9756 1.99023 79.6658 1.99023Z" fill="#262626"/>
<path d="M92.2446 8.2666C92.9229 8.2666 93.7862 8.32784 94.5569 8.4503V11.7263C93.1387 10.716 91.2581 11.0527 90.4256 11.4814V21.5544C90.4256 23.667 88.6683 25.4121 86.541 25.4121H86.3252V9.58313C87.9284 8.81771 89.5624 8.2666 92.2446 8.2666Z" fill="#262626"/>
<path d="M101.864 8.2666C106.365 8.26671 108.862 11.2365 108.862 16.3799V17.0234L98.5957 18.4316C98.9349 21.2177 100.354 22.6875 102.943 22.6875C105.81 22.6874 107.259 21.769 108.308 21.0342V24.4326C107.259 24.9837 105.317 25.6572 102.542 25.6572C97.5168 25.6571 94.5264 22.2889 94.5264 16.9004C94.5264 11.665 97.3014 8.2666 101.864 8.2666ZM101.74 10.9307C99.4281 10.992 98.3496 12.6145 98.3496 15.6455L105.286 14.6963C105.163 11.2978 103.035 10.9307 101.895 10.9307H101.74Z" fill="#262626"/>
<path d="M123.661 25.1978C122.674 25.4121 119.438 25.6567 118.081 25.6567H117.804C112.778 25.5955 110.034 22.7176 110.034 17.5435C110.034 12.308 112.901 8.94003 117.341 8.93994C118.204 8.93994 118.944 9.03197 119.592 9.18506V6.21533C119.592 4.07214 121.318 2.32666 123.477 2.32666H123.661V25.1978ZM118.204 11.3892C114.813 11.3894 114.105 14.6345 114.104 17.3286C114.104 21.0944 115.368 22.9623 117.927 22.9624C118.358 22.9624 119.315 22.8703 119.623 22.8091V11.5728C119.191 11.4503 118.728 11.3892 118.204 11.3892Z" fill="#262626"/>
<path d="M129.673 21.5542C129.673 23.6668 127.946 25.4126 125.788 25.4126H125.604V8.26709H129.673V21.5542ZM127.639 2.32666C128.872 2.32683 129.858 3.2457 129.858 4.37842C129.858 5.48033 128.872 6.36751 127.639 6.36768C126.406 6.36768 125.388 5.48044 125.388 4.37842C125.388 3.24559 126.405 2.32666 127.639 2.32666Z" fill="#262626"/>
<path d="M136.856 2.32666V8.26636H139.508V11.5424H136.856V20.6356C136.856 21.7378 137.226 22.0746 138.429 22.0746C138.737 22.0746 139.2 21.9828 139.508 21.8603V25.2588C139.323 25.32 138.521 25.6568 137.442 25.6568C134.421 25.6568 132.756 24.1872 132.756 21.5235V11.5424H130.968V8.26636H132.756V6.1844C132.756 4.07183 134.482 2.32666 136.61 2.32666H136.856Z" fill="#262626"/>
</svg>
