<svg width="24" height="24" viewBox="0 0 24 24" fill="none" xmlns="http://www.w3.org/2000/svg">
<path fill-rule="evenodd" clip-rule="evenodd" d="M13.1168 12H23.0452L15 18.788L10.6335 15.1043L13.1168 12ZM15.501 20.2568L24 13.0863V20.4375C24 21.9907 22.6568 23.25 21 23.25H6V18.8315C6.225 18.9539 6.4785 19.0256 6.7455 19.0256C7.218 19.0256 7.66275 18.8175 7.9455 18.4631L9.72975 16.2335L14.4975 20.2568C14.6407 20.377 14.82 20.4375 15 20.4375C15.1785 20.4375 15.3585 20.377 15.501 20.2568ZM3.9375 7.07812C3.9375 5.62195 5.196 4.44141 6.75 4.44141C8.30325 4.44141 9.5625 5.62195 9.5625 7.07812C9.5625 8.53432 8.30325 9.71483 6.75 9.71483C5.196 9.71483 3.9375 8.53432 3.9375 7.07812ZM11.976 11.0824C12.9278 9.99187 13.5 8.59755 13.5 7.07812C13.5 3.58289 10.4775 0.75 6.75 0.75C3.02175 0.75 0 3.58289 0 7.07812C0 8.5596 0.5445 9.9216 1.45425 10.9994L6.7455 17.6194L11.976 11.0824Z" fill="#262626"/>
</svg>
