<svg width="20" height="20" viewBox="0 0 20 20" fill="none" xmlns="http://www.w3.org/2000/svg">
<path fill-rule="evenodd" clip-rule="evenodd" d="M11.3355 19.9116C10.8986 19.9699 10.4528 20 10 20C9.9647 20 9.92943 19.9998 9.89422 19.9995C9.92943 19.9998 9.96468 20 9.99998 20C10.4529 20 10.8986 19.9694 11.3355 19.9116ZM11.5624 19.8787V12.8913H13.8925L14.3355 9.99999H11.5624V8.12402C11.5624 7.3337 11.9491 6.56166 13.1922 6.56166H14.4536V4.10068C14.4536 4.10068 13.3089 3.90521 12.2149 3.90521C9.93108 3.90521 8.43762 5.28898 8.43762 7.79636V9.99999H5.89789V12.8913H8.43762V19.8787C3.65689 19.1286 0 14.9913 0 10C0 4.47715 4.47715 0 10 0C15.5228 0 20 4.47715 20 10C20 14.9914 16.3431 19.1286 11.5624 19.8787ZM11.5624 19.8787V19.8791C11.487 19.8907 11.4114 19.9016 11.3355 19.9116C11.4114 19.9015 11.487 19.8905 11.5624 19.8787ZM8.43762 19.8787C8.91287 19.9532 9.39923 19.9943 9.89422 19.9995C9.39918 19.9944 8.91288 19.9539 8.43762 19.8791V19.8787Z" fill="white"/>
</svg>
