<svg width="20" height="20" viewBox="0 0 20 20" fill="none" xmlns="http://www.w3.org/2000/svg">
<path fill-rule="evenodd" clip-rule="evenodd" d="M0 10C0 4.4775 4.4775 0 10 0C15.5231 0 20 4.4775 20 10C20 15.5238 15.5231 20 10 20C4.4775 20 0 15.5238 0 10ZM12.4245 5.11609C11.7918 5.08722 11.602 5.0811 9.99996 5.0811L10 5.08108C8.3979 5.08108 8.20815 5.0872 7.57546 5.11607C6.99047 5.14274 6.67277 5.24049 6.46135 5.32266C6.20075 5.41884 5.96501 5.57221 5.77147 5.77149C5.57218 5.96503 5.41879 6.20077 5.3226 6.4614C5.24043 6.67284 5.14271 6.99052 5.11601 7.57551C5.08714 8.20826 5.08102 8.39796 5.08102 10.0001C5.08102 11.6022 5.08714 11.792 5.11601 12.4247C5.14268 13.0097 5.24043 13.3273 5.3226 13.5388C5.41878 13.7994 5.57215 14.0351 5.77143 14.2287C5.96496 14.4279 6.2007 14.5813 6.4613 14.6775C6.67275 14.7596 6.99042 14.8574 7.57541 14.8841C8.20806 14.9129 8.39773 14.9191 9.99996 14.9191C11.6022 14.9191 11.7919 14.9129 12.4245 14.8841C13.0095 14.8574 13.3272 14.7597 13.5386 14.6775C13.7974 14.5777 14.0324 14.4248 14.2285 14.2287C14.4246 14.0325 14.5775 13.7975 14.6773 13.5388C14.7595 13.3273 14.8572 13.0097 14.8839 12.4247C14.9128 11.7919 14.9189 11.6022 14.9189 10.0001C14.9189 8.39796 14.9128 8.20821 14.8839 7.57551C14.8572 6.99052 14.7595 6.67282 14.6773 6.4614C14.5811 6.20079 14.4278 5.96505 14.2285 5.77151C14.035 5.57223 13.7992 5.41886 13.5386 5.32268C13.3272 5.24051 13.0095 5.14279 12.4245 5.11609ZM7.52625 4.03611C8.16611 4.00691 8.37051 4 9.99996 4C11.6295 4 11.8339 4.00691 12.4737 4.03623C13.1124 4.06526 13.5485 4.16667 13.9302 4.31489C14.3306 4.46557 14.6933 4.7018 14.993 5.00708C15.2982 5.30678 15.5343 5.66945 15.685 6.0698C15.8333 6.45144 15.9347 6.88758 15.9639 7.52623C15.9931 8.1661 16 8.37052 16 10C16 11.6295 15.9931 11.8338 15.9639 12.4738C15.9347 13.1124 15.8333 13.5486 15.685 13.9302C15.5308 14.3288 15.2951 14.6908 14.993 14.9929C14.6908 15.2951 14.3288 15.5308 13.9302 15.685C13.5486 15.8333 13.1125 15.9347 12.4738 15.9639C11.834 15.9931 11.6295 16 10.0001 16C8.37058 16 8.16626 15.9931 7.5263 15.9639C6.88767 15.9347 6.45154 15.8333 6.06987 15.685C5.66953 15.5343 5.30686 15.2982 5.00717 14.9929C4.70195 14.6932 4.46578 14.3306 4.31512 13.9302C4.16679 13.5486 4.06538 13.1124 4.03623 12.4738C4.00691 11.8339 4 11.6295 4 10C4 8.3705 4.00691 8.1661 4.03623 7.52623C4.06526 6.88758 4.16667 6.45144 4.31488 6.06977C4.46559 5.6694 4.70183 5.30673 5.00712 5.00706C5.30681 4.70184 5.66948 4.46566 6.06983 4.315C6.45147 4.16667 6.8876 4.06526 7.52625 4.03611ZM10 7C9.40666 7 8.82664 7.17595 8.33329 7.50559C7.83994 7.83524 7.45543 8.30377 7.22836 8.85195C7.0013 9.40013 6.94189 10.0033 7.05765 10.5853C7.1734 11.1672 7.45912 11.7018 7.87868 12.1213C8.29824 12.5409 8.83279 12.8266 9.41473 12.9424C9.99667 13.0581 10.5999 12.9987 11.1481 12.7716C11.6962 12.5446 12.1648 12.1601 12.4944 11.6667C12.8241 11.1734 13 10.5933 13 10C13 9.20435 12.6839 8.44129 12.1213 7.87868C11.5587 7.31607 10.7957 7 10 7ZM10 11.9473C9.61485 11.9473 9.23835 11.8331 8.91812 11.6192C8.59788 11.4052 8.34829 11.101 8.2009 10.7452C8.05351 10.3894 8.01495 9.99782 8.09009 9.62008C8.16524 9.24233 8.35071 8.89535 8.62305 8.62301C8.89539 8.35067 9.24238 8.1652 9.62012 8.09007C9.99787 8.01493 10.3894 8.05349 10.7452 8.20088C11.1011 8.34828 11.4052 8.59787 11.6192 8.91811C11.8332 9.23835 11.9474 9.61485 11.9474 10C11.9474 10.5165 11.7422 11.0118 11.377 11.377C11.0118 11.7422 10.5165 11.9473 10 11.9473ZM14 7C14 7.55228 13.5523 8 13 8C12.4477 8 12 7.55228 12 7C12 6.44772 12.4477 6 13 6C13.5523 6 14 6.44772 14 7Z" fill="white"/>
</svg>
