<svg width="20" height="20" viewBox="0 0 20 20" fill="none" xmlns="http://www.w3.org/2000/svg">
<path fill-rule="evenodd" clip-rule="evenodd" d="M14.9998 14.7787H12.8561V11.3287C12.8561 10.4624 12.5461 9.86995 11.7698 9.86995C11.1786 9.86995 10.8248 10.2706 10.6698 10.6549C10.6136 10.7931 10.5992 10.9837 10.5992 11.1774V14.7787H8.45605C8.45605 14.7787 8.48355 8.93495 8.45605 8.3312H10.5992V9.24432C10.8848 8.80307 11.3936 8.17932 12.5317 8.17932C13.9417 8.17932 14.9998 9.09995 14.9998 11.0812V14.7787ZM6.19813 7.44937H6.18438C5.465 7.44937 5 6.95375 5 6.335C5 5.70312 5.48 5.22062 6.21187 5.22062C6.94562 5.22062 7.3975 5.70312 7.41062 6.335C7.41062 6.95375 6.94563 7.44937 6.19813 7.44937V7.44937ZM5.12646 14.7788H7.27084V8.3313H5.12646V14.7788ZM10 0C4.47687 0 0 4.4775 0 10C0 15.5231 4.47687 20 10 20C15.5225 20 20 15.5231 20 10C20 4.4775 15.5225 0 10 0V0Z" fill="white"/>
</svg>
