<svg width="24" height="24" viewBox="0 0 24 24" fill="none" xmlns="http://www.w3.org/2000/svg">
<g clip-path="url(#clip0_42309_1899)">
<path fill-rule="evenodd" clip-rule="evenodd" d="M10.8592 10.9084C10.8592 10.5844 10.8592 10.4937 10.5547 10.4937H8.54692C8.59867 10.0272 8.70218 9.71667 8.91593 9.50292C9.15592 9.2697 9.43417 9.17896 9.80993 9.17896C10.3604 9.17896 10.8982 9.36045 11.2477 9.58018C11.3902 9.65818 11.4809 9.65142 11.5454 9.4902L11.8627 8.83546C11.9339 8.65396 11.9084 8.57671 11.7854 8.51146C11.2477 8.21372 10.5479 7.99997 9.84217 7.99997C9.09068 7.99997 8.48843 8.16872 8.02868 8.53096C7.4587 8.9847 7.1932 9.55467 7.0897 10.4937H6.40271C6.09896 10.4937 6.09896 10.5844 6.09896 10.9084V11.1214C6.09896 11.4462 6.09896 11.5234 6.40271 11.5234H7.04395V12.2037H6.40271C6.09896 12.2037 6.09896 12.2944 6.09896 12.6244V12.8187C6.09896 13.1299 6.09896 13.2139 6.40271 13.2139H7.10246C7.1992 13.9647 7.4137 14.4829 7.79542 14.8458C8.26867 15.3191 8.93542 15.4998 9.97792 15.4998C10.4962 15.4998 11.2214 15.3641 11.6752 15.1631C11.8304 15.0919 11.8304 14.9951 11.7854 14.7881L11.6557 14.2503C11.6099 14.0561 11.5709 13.9909 11.3969 14.0561C11.0144 14.2174 10.5352 14.3276 10.0754 14.3276C9.45368 14.3276 9.11018 14.1791 8.88968 13.9137C8.74717 13.7517 8.65042 13.5312 8.59192 13.2139H10.5547C10.8592 13.2139 10.8592 13.1299 10.8592 12.8187V12.6244C10.8592 12.2944 10.8592 12.2037 10.5547 12.2037H8.48842V11.5234H10.5547C10.8592 11.5234 10.8592 11.4462 10.8592 11.1214V10.9084ZM16.4999 12.4999C14.8432 12.4999 13.4999 13.8432 13.4999 15.4998V17.7498H0V5.75H19.4998V12.4999H16.4999ZM22.5 16.2501H15.0001V15.5001C15.0001 14.6721 15.6721 14.0001 16.5001 14.0001H24V14.7501C24 15.5781 23.328 16.2501 22.5 16.2501ZM15.0001 19.2501H22.5C23.328 19.2501 24 18.5781 24 17.7501V17.0001H16.5001C15.6721 17.0001 15.0001 17.6721 15.0001 18.5001V19.2501ZM22.5 22.25H15.0001V21.5C15.0001 20.672 15.6721 20 16.5001 20H24V20.75C24 21.578 23.328 22.25 22.5 22.25Z" fill="#262626"/>
</g>
<defs>
<clipPath id="clip0_42309_1899">
<rect width="24" height="24" fill="white"/>
</clipPath>
</defs>
</svg>
