<svg width="20" height="20" viewBox="0 0 20 20" fill="none" xmlns="http://www.w3.org/2000/svg">
<path fill-rule="evenodd" clip-rule="evenodd" d="M19.975 9.9875C19.975 15.5034 15.5034 19.975 9.9875 19.975C4.47156 19.975 0 15.5034 0 9.9875C0 4.47156 4.47156 0 9.9875 0C15.5034 0 19.975 4.47156 19.975 9.9875ZM12.8691 6.09366C13.2576 6.53114 13.7757 6.83308 14.3479 6.95547C14.5368 6.99532 14.7294 7.01529 14.9225 7.01505V8.97615C13.942 8.97789 12.9856 8.67212 12.188 8.10188V12.1043C12.1879 12.8251 11.9731 13.5295 11.5709 14.1276C11.1687 14.7258 10.5974 15.1905 9.92991 15.4625C9.26241 15.7345 8.529 15.8014 7.8233 15.6547C7.1176 15.508 6.47162 15.1543 5.96782 14.6389C5.43953 14.0981 5.09349 13.4057 4.9781 12.6585C4.86271 11.9114 4.98373 11.1468 5.32425 10.4719C5.66477 9.79688 6.20775 9.24521 6.87724 8.89403C7.54673 8.54284 8.30925 8.4097 9.05813 8.51323V10.5184C8.7223 10.4116 8.36116 10.4145 8.02708 10.5267C7.69301 10.6389 7.40336 10.8546 7.20015 11.1426C6.99693 11.4305 6.89072 11.7757 6.8969 12.1281C6.90308 12.4804 7.02135 12.8217 7.23454 13.1023C7.44447 13.3783 7.73561 13.5816 8.06704 13.6836C8.39847 13.7856 8.75354 13.7812 9.08234 13.671C9.41114 13.5608 9.69715 13.3504 9.90018 13.0693C10.1032 12.7881 10.2131 12.4505 10.2143 12.1037V4.27078H12.188V4.52344C12.2419 5.10604 12.4806 5.65618 12.8691 6.09366Z" fill="white"/>
</svg>
