<svg width="50" height="52" viewBox="0 0 50 52" fill="none" xmlns="http://www.w3.org/2000/svg">
<path fill-rule="evenodd" clip-rule="evenodd" d="M26.8 16.25H33.1V14.5625H26.8V16.25ZM26.8 23H33.1V21.3125H26.8V23ZM26.8 29.75H33.1V28.0625H26.8V29.75ZM20.5765 17.3671L19.6423 18.243L18.7081 17.3671L16.2169 15.0316C16.7326 14.5482 17.5696 14.5482 18.0853 15.0316L19.6423 16.4913L22.4458 13.8639C22.9615 13.3804 23.7985 13.3804 24.3142 13.8639L20.5765 17.3671ZM17.7999 23.8438H21.4V20.4688H17.7999V23.8438ZM17.7999 30.5938H21.4V27.2188H17.7999V30.5938ZM32.1946 9.5H14.2693C14.2306 9.5 14.2 9.52869 14.2 9.56497V33.109C14.2 34.9821 15.8191 36.5 17.8171 36.5H35.7307C35.7694 36.5 35.8 36.4713 35.8 36.435V12.8801C35.8 11.0128 34.1863 9.5 32.1946 9.5Z" fill="#666666"/>
<path d="M35.75 39.5V42.5H17.25C15.5933 42.5 14.25 41.1568 14.25 39.5V36.5C14.25 38.1568 15.5933 39.5 17.25 39.5H35.75Z" fill="#E2001A"/>
</svg>
