<svg width="20" height="20" viewBox="0 0 20 20" fill="none" xmlns="http://www.w3.org/2000/svg">
<path fill-rule="evenodd" clip-rule="evenodd" d="M15 13.0637C15 14.0719 14.1819 14.8912 13.1731 14.8912H6.82625C5.8175 14.8912 5 14.0719 5 13.0637V11.595C5 10.5869 5.8175 9.76812 6.82625 9.76812H13.1731C14.1819 9.76812 15 10.5869 15 11.595V13.0637ZM7.5398 5.10938L7.95605 6.62063H7.99605L8.39355 5.10938H9.0448L8.29793 7.32125V8.88875H7.6573V7.39125L6.89355 5.10938H7.5398ZM9.09125 6.73813C9.09125 6.52188 9.16813 6.35 9.32063 6.22312C9.47375 6.095 9.68063 6.03125 9.93938 6.03125C10.175 6.03125 10.3681 6.09812 10.5194 6.2325C10.6688 6.36688 10.7444 6.5425 10.7444 6.75375V8.19438C10.7444 8.43375 10.6706 8.61938 10.5238 8.75563C10.3756 8.89125 10.1719 8.96 9.91313 8.96C9.66438 8.96 9.465 8.88875 9.315 8.74875C9.16625 8.60812 9.09125 8.42 9.09125 8.18313V6.73813ZM11.2061 6.10059H11.7748V8.23809C11.7748 8.30434 11.7879 8.35184 11.8117 8.38121C11.8348 8.41184 11.8742 8.42621 11.9273 8.42621C11.9686 8.42621 12.0223 8.40684 12.0867 8.36746C12.1504 8.32746 12.2086 8.27871 12.2617 8.21746V6.10059H12.8317V8.88871H12.2617V8.57996C12.1573 8.69371 12.0479 8.78121 11.9342 8.83996C11.8204 8.89871 11.7104 8.93059 11.6036 8.93059C11.4717 8.93059 11.3729 8.88746 11.3061 8.80371C11.2392 8.72184 11.2061 8.59746 11.2061 8.43121V6.10059ZM10 0C4.4775 0 0 4.4775 0 10C0 15.5237 4.4775 20 10 20C15.5231 20 20 15.5237 20 10C20 4.4775 15.5231 0 10 0V0ZM9.91113 8.47643C9.98863 8.47643 10.0499 8.45581 10.0949 8.41268C10.1405 8.37018 10.1636 8.31018 10.1636 8.23581V6.71768C10.1636 6.65643 10.1405 6.60768 10.0943 6.56956C10.048 6.53206 9.98676 6.51331 9.91113 6.51331C9.84238 6.51331 9.78551 6.53206 9.74176 6.56956C9.69863 6.60768 9.67676 6.65643 9.67676 6.71768V8.23581C9.67676 8.31268 9.69738 8.37143 9.73801 8.41268C9.77801 8.45706 9.83613 8.47643 9.91113 8.47643M6.41016 10.9117H6.99953V13.8436H7.56953V10.9117H8.16016V10.4124H6.41016V10.9117ZM11.0977 13.425C11.1264 13.39 11.1408 13.3325 11.1408 13.2506V11.9444C11.1408 11.8575 11.1239 11.7931 11.0877 11.7494C11.0508 11.705 10.9977 11.6831 10.9302 11.6831C10.8939 11.6831 10.8583 11.6919 10.8227 11.7075C10.7877 11.725 10.7533 11.7506 10.7183 11.7856V13.3631C10.7595 13.4031 10.7995 13.435 10.8389 13.4519C10.8777 13.4706 10.9183 13.48 10.9608 13.48C11.0227 13.48 11.0683 13.4619 11.0977 13.425ZM10.9352 11.3412C11.0127 11.3012 11.0902 11.2819 11.1689 11.2819C11.3295 11.2819 11.4514 11.3356 11.5358 11.4425C11.6208 11.5512 11.662 11.7087 11.662 11.9162V13.3212C11.662 13.4994 11.6227 13.6362 11.5433 13.7325C11.4645 13.8294 11.3489 13.8756 11.1995 13.8756C11.1002 13.8756 11.012 13.8587 10.9352 13.8206C10.8577 13.7844 10.7845 13.7281 10.7183 13.65V13.8437H10.207V10.4125H10.7183V11.5175C10.787 11.4412 10.8595 11.3819 10.9352 11.3412ZM12.4492 12.2447H12.8967V11.9897C12.8967 11.8834 12.8786 11.8065 12.8436 11.7628C12.8092 11.7147 12.7523 11.6915 12.6755 11.6915C12.5948 11.6915 12.5373 11.7147 12.5017 11.7628C12.4667 11.8065 12.4492 11.8834 12.4492 11.9897V12.2447ZM12.1427 11.4559C12.2859 11.3184 12.4696 11.2496 12.6965 11.2496C12.9284 11.2496 13.1065 11.3134 13.2302 11.4415C13.3546 11.5696 13.4171 11.7528 13.4171 11.9934V12.639H12.449V13.1153C12.449 13.2478 12.4659 13.3409 12.4984 13.3934C12.5321 13.4446 12.5896 13.4703 12.6702 13.4703C12.7546 13.4703 12.8127 13.4484 12.8465 13.404C12.879 13.3603 12.8965 13.264 12.8965 13.1153V13.0003H13.4171V13.1296C13.4171 13.3896 13.354 13.5853 13.2259 13.7165C13.1002 13.8471 12.9109 13.9121 12.6584 13.9121C12.4321 13.9121 12.2534 13.844 12.1234 13.7034C11.994 13.5653 11.9277 13.374 11.9277 13.1296V11.9934C11.9277 11.7746 11.999 11.594 12.1427 11.4559ZM9.16371 13.3715C9.22121 13.3346 9.27309 13.2896 9.32059 13.2346V11.3121H9.82684V13.844H9.32059V13.5653C9.22746 13.6678 9.12996 13.7459 9.02871 13.7996C8.92809 13.8546 8.82996 13.8803 8.73559 13.8803C8.61746 13.8803 8.52996 13.844 8.47059 13.7671C8.41184 13.6909 8.38184 13.5803 8.38184 13.429V11.3121H8.88809V13.254C8.88809 13.314 8.89871 13.3565 8.91871 13.3834C8.94121 13.4115 8.97559 13.424 9.02246 13.424C9.05934 13.424 9.10684 13.4065 9.16371 13.3715Z" fill="white"/>
</svg>
